PathFileType	4	(X/Y/Z)	Patient4_TMGait_0pt8_01_right_22.trc.trc
DataRate	CameraRate	NumFrames	NumMarkers	Units	OrigDataRate	OrigDataStartFrame	OrigNumFrames
88.050314465409	88.050314465409	5	33	mm	88.050314465409	71	       141
Frame#	Time	Sacral			L.Shoulder			Chest			R.Shoulder			Neck			R.ASIS			L.ASIS			R.Thigh.Superior			R.Thigh.Lateral			R.Thigh.Inferior			R.Patella			L.Thigh.Superior			L.Thigh.Lateral			L.Thigh.Inferior			L.Patella			L.Shank.Superior			L.Shank.Lateral			L.Shank.Inferior			R.Shank.Superior			R.Shank.Lateral			R.Shank.Inferior			R.Heel			R.Midfoot.Superior			R.Midfoot.Lateral			R.Toe			L.Heel			L.Midfoot.Lateral			L.Midfoot.Superior			L.Toe			L.Elbow			L.Wrist			R.Elbow			R.Wrist			
		X1	Y1	Z1	X2	Y2	Z2	X3	Y3	Z3	X4	Y4	Z4	X5	Y5	Z5	X6	Y6	Z6	X7	Y7	Z7	X8	Y8	Z8	X9	Y9	Z9	X10	Y10	Z10	X11	Y11	Z11	X12	Y12	Z12	X13	Y13	Z13	X14	Y14	Z14	X15	Y15	Z15	X16	Y16	Z16	X17	Y17	Z17	X18	Y18	Z18	X19	Y19	Z19	X20	Y20	Z20	X21	Y21	Z21	X22	Y22	Z22	X23	Y23	Z23	X24	Y24	Z24	X25	Y25	Z25	X26	Y26	Z26	X27	Y27	Z27	X28	Y28	Z28	X29	Y29	Z29	X30	Y30	Z30	X31	Y31	Z31	X32	Y32	Z32	X33	Y33	Z33	

71	25.295000000000	884.087327708547	1002.040271316695	511.843179643456	1035.400375241228	1426.402958507120	318.964636838776	1161.007078582490	1356.274496321550	463.246799915157	1102.787650502691	1429.291144502940	646.979494875176	1038.074123294330	1483.785687641497	477.126078340364	1114.968018680596	928.873897251451	605.533499655166	1080.168087541442	951.254015742235	332.317381764611	1098.131683303411	714.573052244857	580.420928707689	985.383008009050	627.490338984230	641.652608173044	1039.814050134116	558.470951397209	561.675002623470	1014.868929042433	475.703951625645	565.175064935536	1155.922699710003	770.062472850262	365.892288813850	1107.971035247179	638.059126163675	290.035168224207	1213.821553140757	583.265954645887	350.241726577646	1242.629567037771	523.672933417212	347.989394107630	1234.153893690504	452.374056500502	339.446346433626	1184.837146463628	313.485723032978	295.834950523059	1287.461843001576	229.921915271403	349.186790559807	972.878569749333	394.990584232962	570.724395448899	885.539600111260	302.478090079793	630.229758759381	913.653045864401	203.317867001064	564.700386841367	763.240917429102	47.338585206619	522.587630275580	932.338575476567	96.558364952798	570.965949174579	840.343488935619	37.836950626212	602.265959287872	1048.748414027502	39.975439841627	608.596305411937	1230.694757152045	46.545331609572	398.134540438314	1303.658165850673	51.929158730486	317.243217516346	1365.489712149072	137.418543920963	330.859290202233	1500.646751663027	120.357722420888	305.811589555456	878.305851225633	1109.350803370091	237.310807189512	811.516359875833	860.017443517996	257.264059607515	1285.442088511901	1144.035291392117	750.721706589253	1510.464174912055	1236.655139599309	684.089469022147	
72	25.306357142857	885.113014683723	1000.677617785321	509.234919281631	1035.556631964083	1425.227977617915	317.391861676504	1161.113836544980	1355.293933921637	461.789834215656	1102.274817917777	1428.075563685368	645.393910109798	1037.841120703974	1482.405139283319	475.576907327168	1115.356534399248	927.475556654027	604.333294426460	1082.239197547854	949.637734189998	330.653484307439	1097.422189109261	712.870076552627	579.997809981515	983.574978973316	626.623587514379	640.647057762456	1038.068200767022	556.922397835208	561.209149837559	1012.176145098090	473.884927845924	564.473291995470	1158.520265307439	768.952139064965	365.321446690201	1109.588092704852	635.920275652242	291.279762656806	1215.563155760037	581.516593306991	351.022092341047	1243.146744380546	520.200040853126	349.798979370181	1233.556456757511	448.207127600954	341.651612894334	1180.752860954726	310.354627258546	298.958403187948	1280.930988049594	224.538171048978	353.070588782303	968.972686521843	393.642788990383	570.087257354226	880.106261062682	302.629439748847	629.707508476792	906.620421971688	202.885713262333	564.561479756392	754.178901049817	48.188933617991	522.869751466676	923.453216820074	96.651000204310	571.062638564697	831.314276271464	38.112067952512	602.368973671290	1039.724029856594	39.714210614319	608.708538382091	1219.086142483858	43.921139016598	402.690518017590	1291.138251173569	47.791333695782	320.848349407978	1356.193898224734	130.271794436598	334.993098895236	1490.379850512663	108.323273116509	307.911061144872	876.546557131336	1109.677989085985	236.587692627921	806.602383955949	861.263750285636	257.455298802380	1287.200488402480	1144.886161269839	749.076300109290	1509.147690689818	1243.246197577699	681.826364197076	
73	25.317714285714	886.263111847131	999.314508040606	506.426595552635	1035.844094548856	1423.971741372793	315.621591470190	1161.266845577634	1354.372590712609	460.257847687819	1101.664081690024	1426.905078348732	643.725499404787	1037.649923458706	1481.062412519151	473.832657717078	1115.860459605110	926.075039311210	603.119350247041	1084.536560146659	948.111782136992	329.008333585683	1096.966031423751	711.174560955416	579.571295362042	982.021478483747	625.705025004487	639.478008147086	1036.740104791354	555.321032944323	560.659348233056	1009.943492476266	471.879984753624	563.678806852818	1161.290808642376	767.727616276974	364.762879989215	1111.316601093993	633.945068397388	292.368976582762	1217.228080508183	579.718874332112	351.985437113498	1243.395795709779	516.674617182432	351.817441002567	1232.751327563323	444.086640602014	343.813929763199	1176.576767419272	307.345883908137	301.702175107393	1274.136411672091	219.245487693737	356.773193166464	965.407162430024	392.202911981213	569.345532296475	874.883641181757	302.833762847624	629.043710401704	899.725363207006	202.471811540883	564.388135318923	745.117186028241	49.205894492479	523.177994100008	914.637153346372	96.775369872122	571.180050605018	822.295045354217	38.466856849319	602.500610760780	1030.725360916260	39.474515716003	608.812610031159	1206.853076461427	41.585083506103	406.663555093899	1278.154885373967	44.002341884236	324.011600981519	1346.588067029484	123.177594630405	339.079596288176	1479.767208140249	96.029995969693	310.180388859729	875.633953514391	1109.454673739728	235.674635780038	802.856673745376	861.944627964528	257.201170114041	1288.194396840599	1145.241783783693	747.537371548003	1507.406144968479	1248.424872126151	679.823184868097	
74	25.329071428571	887.499713063926	998.006966589582	503.471089787038	1036.293763855002	1422.677892979906	313.661192311217	1161.480178891438	1353.549141346239	458.673801250401	1100.975611142479	1425.837986400433	641.989745953204	1037.522978960383	1479.819904547289	471.896584946812	1116.464613463013	924.718399829885	601.883124926250	1086.993485789160	946.744115062724	327.426183044246	1096.775458245349	709.539268553647	579.075335780404	980.800018284221	624.748558068858	638.131158129584	1035.894013550069	553.705033955704	559.974115254046	1008.268853651161	469.689912554715	562.787612344030	1164.090032728193	766.416272322163	364.244374410856	1113.083687553167	632.236461931153	293.174286403383	1218.724470755145	577.970995341275	353.046596811524	1243.357936700327	513.309920815727	353.879193537064	1231.780931502190	440.248787205503	345.779571579951	1172.573266676481	304.634117554362	303.876648281242	1267.442686729395	214.373125649392	360.099656828431	962.239297541632	390.696835612464	568.502201913371	869.925688661792	303.147480518481	628.248983396344	893.016022733383	202.127308317340	564.185259236689	736.076541435150	50.483216371714	523.510135818966	905.931141234026	96.930064015435	571.319156583262	813.298236632372	38.947403942446	602.657095397445	1021.750113000783	39.257368996623	608.900749716345	1194.646821679587	39.693377033228	409.899470008523	1265.403008621464	40.811043605682	326.622795325262	1337.129550512995	116.605802576916	342.929378915236	1469.316108348555	84.311938605368	312.546016430294	875.574669740904	1108.712282092396	234.531598228252	800.350141988329	862.047455886749	256.448993061337	1288.389475287576	1145.075575173443	746.116890449852	1505.278646752684	1252.178185070754	678.074826131394	
75	25.340428571429	888.768692703506	996.819941424133	500.429584931804	1036.928071410335	1421.407810545589	311.528813207952	1161.764459073121	1352.866211052122	457.062066715650	1100.237763031542	1424.943631597706	640.201542210590	1037.478520371903	1478.748392818307	469.779449159384	1117.138588865653	923.465547197273	600.607213971697	1089.522542356895	945.610014208410	325.934219064236	1096.873175293675	708.032311633645	578.427834299816	980.020928510248	623.770703695538	636.600590840435	1035.628392111342	552.121131601427	559.106742754537	1007.285576105757	467.326344059262	561.814066293718	1166.786286681581	765.100355357607	363.774846813409	1114.845720119917	630.905537280882	293.581086826085	1220.003368792359	576.401747089784	354.087718619529	1243.068319544652	510.315203778058	355.783967075030	1230.701822237458	436.893394748652	347.402731706904	1168.920618967656	302.377348325035	305.331066554342	1261.085725489014	210.168309772699	362.884031767232	959.560913696784	389.158568759280	567.576857472576	865.318611862447	303.641375141847	627.343139459701	886.567545400505	201.918007768801	563.962841502896	727.096400421720	52.152793058484	523.860720171008	897.392256887334	97.119260659746	571.485563133755	804.344904971037	39.624453115666	602.830763523418	1012.791558627018	39.057952726417	608.966334992202	1182.928622383801	38.322195269339	412.328251234773	1253.351001390723	38.352484990311	328.620706914316	1328.081240365861	110.916397729105	346.352145314736	1459.335234954651	73.867091720758	314.871359440427	876.377960557883	1107.505628550096	233.125852568121	799.156117668979	861.580525291468	255.154127484691	1287.746969650439	1144.378619657055	744.826180207125	1502.794450726541	1254.490511278106	676.573670078537	
